<?xml version="1.0" encoding="utf-8"?>
<!-- Generator: Adobe Illustrator 24.0.2, SVG Export Plug-In . SVG Version: 6.00 Build 0)  -->
<svg version="1.1" id="Capa_1" xmlns="http://www.w3.org/2000/svg" xmlns:xlink="http://www.w3.org/1999/xlink" x="0px" y="0px"
	 viewBox="0 0 1725.65 907.83" style="enable-background:new 0 0 1725.65 907.83;" xml:space="preserve">
<style type="text/css">
	.st0{fill:#FFFFFF;}
	.st1{stroke:#000000;stroke-miterlimit:10;}
	.st2{fill:#E80000;}
</style>
<g>
	<path d="M819.39,691.02c-3.39-1.15-6.74-2.44-10.07-3.74c-10.03-3.91-20.39-5.78-31.49-5.35c0.72-0.45,1.4-1.01,2.19-1.31
		c9.29-3.59,18.71-3.52,28.19-0.8c0.58,0.16,1.18,0.26,1.73,0.47c19.57,7.58,26.19,8.62,52.21-1.89
		C852.14,690.59,833.74,695.84,819.39,691.02z M892.7,770.35c-0.54-4.49,1.37-5.1,4.47-5.03c6.59,0.15,13.2,0.12,19.79-0.07
		c5.38-0.15,10.75-0.62,17.48-1.04c-13.39-2.38-25.48-4.53-38.01-6.76c3.93-9.72,9.1-17.74,16.09-24.42
		c1.7-1.64,5.79-2.36,8.19-1.63c11.42,3.49,22.79,7.26,33.9,11.62c8.51,3.33,12.21,10.78,10.46,19.64
		c-0.26,1.34-2.69,3.06-4.27,3.23c-15.46,1.67-30.94,3.23-46.45,4.39C907.2,770.8,900.01,770.35,892.7,770.35z M1089.37,731.45
		c0.68,2.59,1.02,5.27,1.72,8.98c-3.61-3.12-6.24-5.39-8.87-7.66c4.19,16.28,5.79,32.22,0.16,48.23c-2.87-8.03-5.7-15.92-8.52-23.82
		c-0.46,0.14-0.91,0.27-1.37,0.41c2.27,12.72,2.81,25.23-5.23,36.68v-7.87c-5.54-1.3-10.96-2.3-16.19-3.91
		c-2.64-0.81-5.46-2.24-7.24-4.22c-2.75-3.03-5.33-2.77-9.01-2.12c-16.07,2.84-32.21,5.17-48.34,7.74
		c-2.58,0.41-3.94-0.32-4.17-3.04c-0.2-2.46-0.77-4.9-1.25-7.87c-2.21,4.24-3.85,8.17-6.18,11.66c-3.87,5.81-9.41,9.2-16.67,9.95
		c-12.17,1.28-24.34,2.78-36.5,4.18c-0.1-0.6-0.2-1.21-0.3-1.81c4.81-0.88,9.68-1.58,14.44-2.68c7.71-1.77,15.4-3.61,23.02-5.76
		c8.09-2.28,13.18-7.65,14.28-15.83c0.84-6.32,1.45-12.81,0.92-19.13c-0.7-8.27-5.33-14.88-13.32-17.98
		c-12.93-5-26.05-9.6-39.32-13.67c-6.84-2.09-12.9,0.68-17.63,6.05c-8.02,9.09-14.12,19.27-18.33,30.53
		c-0.49,1.33-1.04,2.64-1.57,3.95c-0.41-0.06-0.82-0.12-1.22-0.18c0.5-4.51,0.54-9.12,1.6-13.48c2.95-12.16,9.14-22.46,18.99-30.67
		c3.42-2.86,6.58-3.31,10.63-1.83c22.36,8.14,45.16,8.18,68.19,3.29c3.06-0.65,6.18-1.35,9.07-2.51
		c15.49-6.29,31.23-3.52,47.49-1.75c-1.81,2.93-3.37,5.46-5.07,8.2c6.47-2.76,12.49-5.32,19.46-8.3c-2.85,5.1-5.02,8.99-7.5,13.42
		c7.42-3.95,13.83-7.86,20.66-10.89c9.41-4.17,18.65-1.96,24.4,5.08c0.61,0.75,1.01,1.65,2.15,3.54c-2.52-1.63-3.99-2.59-6.35-4.12
		C1087.61,726,1088.65,728.68,1089.37,731.45z M900.68,669.87c9.26,6.25,19.01,3.95,28.73,2.43c6.69-1.06,13.08,0.13,19.33,2.57
		c10.11,3.97,20.17,8.48,31.65,4.87c-6.21,5.28-13.3,6.56-20.94,5.27c-3.53-0.6-7.11-1.36-10.41-2.68c-8-3.22-16.21-3.72-24.69-2.97
		c-7.32,0.63-14.43-0.11-20.28-5.17C902.78,673.08,901.68,671.74,900.68,669.87z M1152.64,534.96c-0.95-10.63-3.53-21.25-3.31-31.85
		c0.38-18.94,0.49-37.82-2.35-56.57c-1.34-8.81-2.77-17.86-8.64-25.16c-5.74-7.13-12.09-13.78-17.95-20.83
		c-1.69-2.04-2.89-4.61-3.81-7.12c-2.55-7.02-4.06-14.48-7.34-21.13c-9.46-19.24-25.02-26.8-46.45-22.82
		c-7.91,1.47-15.69,3.8-23.4,6.18c-12.17,3.77-23.87,3.81-35.06-2.98c-4.45-2.71-9.07-5.16-13.51-7.89
		c-9.89-6.09-19.69-12.32-29.58-18.41c-10.97-6.75-22.66-8.21-34.92-3.95c-10.58,3.68-21.3,7.12-31.59,11.48
		c-19.26,8.14-39.17,11.48-60.09,10.19c-13.02-0.81-26.08-0.74-39.13-0.96c-14.85-0.25-28.32,3.37-40.13,12.78
		c-11.03,8.8-22.75,16.76-33.91,25.42c-14.68,11.39-30.97,18.01-49.96,18.21c-8.07,0.08-16.14,1.27-24.19,2.07
		c-10.43,1.03-19.03,5.29-26.07,13.14c-8.39,9.36-15.69,19.29-19.94,31.08c-4.02,11.17-9.93,21.24-17.16,30.71
		c-3.93,5.14-7.28,10.75-10.53,16.33c-4.78,8.23-5.46,16.97-2.16,25.86c2.85,7.71,6.05,15.29,8.82,23.02
		c1.04,2.93,1.99,6.15,1.85,9.19c-0.6,12.53,1.74,24.18,9.09,34.69c5.94,8.5,9.17,18.02,11.25,28.03
		c2.65,12.78,5.68,25.48,8.39,38.23c3.99,18.8,15.09,30.53,34.46,35.23c4.89,1.19,9.64,4.69,13.4,8.21
		c8.95,8.37,18.85,15.16,31.34,15.62c11.9,0.43,23.91-0.67,35.78-1.84c10.84-1.07,21.76-2.69,30.23-10.98
		c16.5,16.03,35.65,25.1,59.16,23.08c22.48-1.94,43.2-8.11,59.35-24.75c3.97,3.02,7.72,5.86,12.11,9.19
		c-1.21,0.83-2.11,1.36-2.89,2.02c-14.54,12.34-22.42,27.94-23.91,46.68c-1.75,21.87,7.24,36.6,27.76,45.42
		c18.91,8.13,38.63,9.27,58.65,5.81c14.37-2.49,28.35-2.56,42.73,0.73c20.14,4.59,40.59,7.87,61.41,7.73
		c21.02-0.14,38.54-12,46.47-31.04c6.06-14.6,6.94-29.88,6.3-45.36c-0.47-11.32-1.16-22.59-8.02-32.66
		c3.28-2.86,6.44-5.33,9.26-8.12c14.07-13.92,24.69-30.18,33.34-47.69c10.21-20.62,18.18-42.09,18.43-65.16
		C1156.41,567.68,1154.11,551.3,1152.64,534.96z M1128.24,643.73c-0.43,0.9-0.88,1.8-1.33,2.68c-0.43,0.87-0.86,1.72-1.32,2.57
		c-0.04,0.07-0.07,0.15-0.12,0.23c-0.38,0.73-0.77,1.44-1.16,2.16c-1.44,2.65-2.95,5.27-4.53,7.84c-0.26,0.43-0.53,0.86-0.79,1.29
		c-2.14,3.43-4.38,6.79-6.72,10.08c-0.77,1.09-1.56,2.17-2.35,3.24c-0.34,0.45-0.66,0.89-1.01,1.34c-0.73,0.99-1.49,1.97-2.25,2.93
		c-0.46,0.59-0.91,1.17-1.38,1.75c-0.38,0.49-0.78,0.99-1.19,1.48c-0.62,0.77-1.26,1.55-1.91,2.32c-11.84,14.17-27.12,20.3-45.42,20
		c-13.2-0.23-25.89-2.9-37.83-8.53c-0.54-0.26-1.08-0.52-1.62-0.77c-9.05-4.45-9.39-5.46-4.79-14.43
		c23.31,19.34,67.71,23.93,86.42-6.68c-25.02,12.97-49.54,19.4-72.44-3.37c20.66,9.19,41.18,13.68,61.31-0.69
		c-0.02-0.48-0.06-0.95-0.08-1.42c-2.64,0.45-5.29,0.81-7.9,1.37c-21.7,4.68-40.61-0.77-57.28-14.79c-2.15-1.81-3.01-3.45-2.57-6.32
		c6.16-40,5.04-80.09,1.09-120.17c-1.01-10.2-3.05-20.3-3.79-30.5c-0.4-5.32,1.09-10.74,1.51-16.12
		c0.94-11.72,1.74-23.46,2.59-35.19c-0.49-0.05-0.98-0.09-1.49-0.14c-0.5,3.7-0.77,7.45-1.6,11.09c-0.91,3.97-2.19,7.89-3.65,11.7
		c-0.44,1.15-2.4,2.79-3.09,2.57c-1.26-0.42-2.7-1.92-3.03-3.22c-3.11-12.47-6-25.01-8.46-37.89c-0.29,3.04-0.76,6.08-0.82,9.13
		c-0.32,13.93,2.45,27.47,6.52,40.67c5.16,16.73,7.37,33.84,7.9,51.14c0.73,23.57,1.6,47.21,0.71,70.75
		c-0.71,18.67-2.86,37.46-6.45,55.81c-3.35,17.07-12.43,31.89-26.56,43.35c12.69-15.58,16.7-34.02,18.91-53.78
		c-1.09,0.84-1.79,1.24-2.28,1.8c-11.93,13.35-26.53,19.27-44.63,15.16c-7.16-1.63-14.34-3.22-21.32-5.34
		c-17.49-5.34-26.05-17.34-26.29-35.26c-5.04,5.12-5.48,15.55-1.27,27.07c-6.35-2.35-10.13-7.99-10.6-15.61
		c-0.54-8.92-0.84-17.87-1.87-26.74c-0.52-4.51-2.4-8.86-3.67-13.28c-0.47,0.08-0.92,0.15-1.39,0.22
		c-2.75,24.44-5.5,48.88-8.25,73.33c-0.32,0-0.65-0.01-0.97-0.01c0-5.26,0.12-10.53-0.01-15.78c-0.74-28.13-1.37-56.27-2.44-84.38
		c-0.28-7.58-2.19-15.09-2.95-22.67c-1.98-19.57,1.4-38.88,3.22-58.27c1.72-18.36,2.93-36.79,4.08-55.19c0.26-4.32-0.59-8.71-1.2-13
		c-1.25,11.26-2.28,22.55-3.82,33.77c-2.74,20.18-5.81,40.33-8.7,60.5c-2.2,15.32-1.25,30.57-0.13,45.99
		c1.78,24.52,1.7,49.18,2.4,73.79c0.06,2.19-0.01,4.4-0.05,6.59c-0.16,11.48-4.77,17.77-15.87,21.63c-1.68,0.59-3.39,1.07-5.08,1.6
		c-0.04,0.43-0.06,0.87-0.1,1.29c4.56,0.55,9.14,1.11,15.09,1.83c-4.43,2.3-7.88,4.53-11.63,5.96c-7.77,2.95-15.91,3.57-23.83,0.87
		c-11.13-3.79-22.49-4.74-34.12-3.83c-0.8,0.07-1.62-0.07-2.44-0.11c-0.16-0.53-0.31-1.06-0.47-1.6c6.64-2.53,13.28-5.07,19.84-7.58
		c-7.97,0-16.28-0.6-24.46,0.13c-17.04,1.5-25.3-4.74-30.73-20.64c-0.26-0.8-0.58-1.57-1.28-2.28c-1.86,15.09,0.02,29.83,3.97,44.43
		c-0.36,0.09-0.71,0.19-1.06,0.28c-2.87-8.84-6.57-17.51-8.4-26.55c-3.49-17.2-6.06-34.6-8.77-51.96
		c-3.12-19.98-6.47-39.96-8.85-60.02c-4.11-34.55-6.89-69.19-2.34-103.93c0.4-3.02,1.12-6,0.94-9.22c-1.1,3.59-2.37,7.13-3.27,10.77
		c-0.94,3.84-1.62,7.74-2.26,11.65c-0.6,3.75-1.08,7.55-1.49,11.34c-0.42,3.91-0.7,7.84-1.03,11.77c-0.43,0.05-0.86,0.11-1.28,0.15
		c-1.73-10.99-3.46-22-5.33-33.92c-2.92,9.15-4.01,17.75-3.91,26.47c0.14,13.24,3.03,25.87,9.13,37.75
		c0.59,1.15,1.04,2.48,1.09,3.73c1.36,30.49,4.55,60.77,9.22,90.94c2.28,14.77,4.41,29.62,5.32,44.5
		c0.34,5.43-2.15,11.58-4.99,16.49c-4.01,6.89-9.56,12.91-14.71,19.64c6.9-2.9,13.98-5.87,21.22-8.91
		c-5.55,7.04-12.46,12.03-21.61,14.52c6.14,2.35,11.83,1.31,28.86-5.09c-2.58,5.26-6.4,8.66-11.33,9.68
		c-9.19,1.9-18.55,3.2-27.9,4.15c-6.04,0.61-12.2,0.22-18.3,0.14c-1.28-0.02-2.56-0.7-4.9-1.38c6.51-1.9,12.07-3.53,17.63-5.15
		c-0.04-0.39-0.07-0.77-0.11-1.17c-5.49-0.5-10.99-1.43-16.49-1.44c-18.92-0.06-32.3-9.04-42.04-24.2
		c-0.29-0.46-0.73-0.83-2.14-0.97c0.73,3.83,1.46,7.65,2.31,12.03c-5.86-2.01-11.09-4.74-13-10.2
		c-3.93-11.17-7.73-22.48-10.19-34.02c-4.17-19.48-7.24-39.19-10.79-58.8c-0.3-1.71-0.76-3.4-1.74-5.13
		c-0.44,5.59-0.89,11.16-1.42,17.72c-5.6-7.38-9.22-14.41-9.75-22.71c-0.65-10.06,0.73-19.78,4.21-29.34
		c4.91-13.44,7.91-27.29,8.44-41.55c-3.47,10.33-6.95,20.68-10.42,31.03c-0.76-0.08-1.51-0.15-2.26-0.23
		c0-4.02-0.17-8.06,0.05-12.09c0.22-4.2,0.8-8.4,0.37-12.9c-1.67,5.13-3.67,10.19-4.91,15.41c-1.21,5.19-1.66,10.55-2.59,16.84
		c-4.17-10.9-9.03-20.8-2.02-31.49c3.88-5.91,8.2-11.57,11.81-17.64c5.02-8.45,10.39-16.84,14.12-25.85
		c5.51-13.31,13.08-24.97,23.65-34.85c5.32-4.96,12.15-5.43,18.81-6.1c10.89-1.1,21.82-1.72,32.72-2.72
		c16.34-1.5,29.72-9.53,42.41-18.88c11.37-8.38,22.93-16.55,33.94-25.37c9.97-7.99,21.2-11.11,33.77-10.84
		c15.14,0.33,30.31,0.38,45.43,1.04c18.65,0.83,36.34-2.7,53.56-9.43c11.13-4.34,22.42-8.31,33.63-12.47
		c10.12-3.77,19.6-2.72,28.67,3.18c9.11,5.93,18.39,11.59,27.63,17.32c3.81,2.36,7.76,4.46,11.53,6.86
		c15.38,9.81,31.59,10.51,48.68,4.94c7.37-2.39,14.95-4.54,22.6-5.69c14.64-2.19,24.34,3.06,31.52,15.76
		c5.58,9.84,7.49,20.62,8.68,31.6c1.54,14.28,3.15,28.55,4.73,42.83c0.07,0.63,0.32,1.24,0.49,1.88c0.2-0.02,0.41-0.05,0.61-0.07
		c1.07-12.6,2.13-25.22,3.19-37.82c0.36-0.18,0.71-0.35,1.07-0.52c6,7.17,14.14,13.27,15.91,22.94c2.49,13.66,4.23,27.52,5.11,41.35
		c1.1,17.21-1.15,34.52,2.27,51.72c1.93,9.74,2.27,19.78,3.67,29.64C1148.64,589.02,1141.27,616.89,1128.24,643.73z"/>
	<path class="st0" d="M1106.85,677.84c-1.51,1.96-3.07,3.88-4.67,5.8c-11.84,14.17-27.12,20.3-45.42,20
		c-13.2-0.23-25.89-2.9-37.83-8.53c-0.54-0.26-1.08-0.52-1.62-0.77c-9.05-4.45-9.39-5.46-4.79-14.43
		c23.31,19.34,67.71,23.93,86.42-6.68C1098.94,673.22,1097.27,681.45,1106.85,677.84z"/>
	<path class="st1" d="M1128.24,643.73c-0.43,0.89-0.88,1.8-1.33,2.68c-0.43,0.86-0.86,1.71-1.32,2.57
		c-0.04,0.07-0.07,0.15-0.12,0.23c-0.38,0.72-0.77,1.44-1.16,2.16c-1.44,2.65-2.95,5.27-4.53,7.84c-0.26,0.43-0.53,0.86-0.79,1.29
		c-2.14,3.43-4.38,6.79-6.72,10.08c-0.77,1.09-1.56,2.17-2.35,3.24c-0.34,0.45-0.66,0.89-1.01,1.34c-0.73,0.99-1.49,1.97-2.25,2.93
		c-0.46,0.59-0.91,1.17-1.38,1.75c-0.38,0.49-0.78,0.99-1.19,1.48c-0.62,0.77-1.26,1.55-1.91,2.32c-11.84,14.17-27.12,20.3-45.42,20
		c-13.2-0.23-25.89-2.9-37.83-8.53c-0.54-0.26-1.08-0.52-1.62-0.77c-9.05-4.45-9.39-5.46-4.79-14.43
		c23.31,19.34,67.71,23.93,86.42-6.68c-25.02,12.97-49.54,19.4-72.44-3.37c20.66,9.19,41.18,13.68,61.31-0.69
		c-0.02-0.48-0.06-0.95-0.08-1.42c-2.64,0.45-5.29,0.81-7.9,1.37c-21.7,4.68-40.61-0.77-57.28-14.79c-2.15-1.81-3.01-3.45-2.57-6.32
		c6.16-40,5.04-80.09,1.09-120.17c-1.01-10.2-3.05-20.3-3.79-30.5c-0.4-5.32,1.09-10.74,1.51-16.12
		c0.94-11.72,1.74-23.46,2.59-35.19c-0.49-0.05-0.98-0.09-1.49-0.14c-0.5,3.7-0.77,7.45-1.6,11.09c-0.91,3.97-2.19,7.89-3.65,11.7
		c-0.44,1.15-2.4,2.79-3.09,2.57c-1.26-0.42-2.7-1.92-3.03-3.22c-3.11-12.47-6-25.01-8.46-37.89c-0.29,3.04-0.76,6.08-0.82,9.13
		c-0.32,13.93,2.45,27.47,6.52,40.67c5.16,16.73,7.37,33.84,7.9,51.14c0.73,23.57,1.6,47.21,0.71,70.75
		c-0.71,18.67-2.86,37.46-6.45,55.81c-3.35,17.07-12.43,31.89-26.56,43.35c12.69-15.58,16.7-34.02,18.91-53.78
		c-1.09,0.84-1.79,1.24-2.28,1.8c-11.93,13.35-26.53,19.27-44.63,15.16c-7.16-1.63-14.34-3.22-21.32-5.34
		c-17.49-5.34-26.05-17.34-26.29-35.26c-5.04,5.12-5.48,15.55-1.27,27.07c-6.35-2.35-10.13-7.99-10.6-15.61
		c-0.54-8.92-0.84-17.87-1.87-26.74c-0.52-4.51-2.4-8.86-3.67-13.28c-0.47,0.08-0.92,0.15-1.39,0.22
		c-2.75,24.44-5.5,48.88-8.25,73.33c-0.32,0-0.65-0.01-0.97-0.01c0-5.26,0.12-10.53-0.01-15.78c-0.74-28.13-1.37-56.27-2.44-84.38
		c-0.28-7.58-2.19-15.09-2.95-22.67c-1.98-19.57,1.4-38.88,3.22-58.27c1.72-18.36,2.93-36.79,4.08-55.19c0.26-4.32-0.59-8.71-1.2-13
		c-1.25,11.26-2.28,22.55-3.82,33.77c-2.74,20.18-5.81,40.33-8.7,60.5c-2.2,15.32-1.25,30.57-0.13,45.99
		c1.78,24.52,1.7,49.18,2.4,73.79c0.06,2.19-0.01,4.4-0.05,6.59c-0.16,11.48-4.77,17.77-15.87,21.63c-1.68,0.59-3.39,1.07-5.08,1.6
		c-0.04,0.43-0.06,0.87-0.1,1.29c4.56,0.55,9.14,1.11,15.09,1.83c-4.43,2.3-7.88,4.53-11.63,5.96c-7.77,2.95-15.91,3.57-23.83,0.87
		c-11.13-3.79-22.49-4.74-34.12-3.83c-0.8,0.07-1.62-0.07-2.44-0.11c-0.16-0.53-0.31-1.06-0.47-1.6c6.64-2.53,13.28-5.07,19.84-7.58
		c-7.97,0-16.28-0.6-24.46,0.13c-17.04,1.5-25.3-4.74-30.73-20.64c-0.26-0.8-0.58-1.57-1.28-2.28c-1.86,15.09,0.02,29.83,3.97,44.43
		c-0.36,0.09-0.71,0.19-1.06,0.28c-2.87-8.84-6.57-17.51-8.4-26.55c-3.49-17.2-6.06-34.6-8.77-51.96
		c-3.12-19.98-6.47-39.96-8.85-60.02c-4.11-34.55-6.89-69.19-2.34-103.93c0.4-3.02,1.12-6,0.94-9.22c-1.1,3.59-2.37,7.13-3.27,10.77
		c-0.94,3.84-1.62,7.74-2.26,11.65c-0.6,3.75-1.08,7.55-1.49,11.34c-0.42,3.91-0.7,7.84-1.03,11.77c-0.43,0.05-0.86,0.11-1.28,0.15
		c-1.73-10.99-3.46-22-5.33-33.92c-2.92,9.15-4.01,17.75-3.91,26.47c0.14,13.24,3.03,25.87,9.13,37.75
		c0.59,1.15,1.04,2.48,1.09,3.73c1.36,30.49,4.55,60.77,9.22,90.94c2.28,14.77,4.41,29.62,5.32,44.5
		c0.34,5.43-2.15,11.58-4.99,16.49c-4.01,6.89-9.56,12.91-14.71,19.64c6.9-2.9,13.98-5.87,21.22-8.91
		c-5.55,7.04-12.46,12.03-21.61,14.52c-5.39,0.39-8.1,0.59-8.1,0.59c-0.04-0.39-7.92,0.98-7.96,0.58
		c-5.49-0.5-10.99-1.43-16.49-1.44c-18.92-0.06-32.3-9.04-42.04-24.2c-0.29-0.46-0.73-0.83-2.14-0.97
		c0.73,3.83,1.46,7.65,2.31,12.03c-5.86-2.01-11.09-4.74-13-10.2c-3.93-11.17-7.73-22.48-10.19-34.02
		c-4.17-19.48-7.24-39.19-10.79-58.8c-0.3-1.71-0.76-3.4-1.74-5.13c-0.44,5.59-0.89,11.16-1.42,17.72
		c-5.6-7.38-9.22-14.41-9.75-22.71c-0.65-10.06,0.73-19.78,4.21-29.34c4.91-13.44,7.91-27.29,8.44-41.55
		c-3.47,10.33-6.95,20.68-10.42,31.03c-0.76-0.08-1.51-0.15-2.26-0.23c0-4.02-0.17-8.06,0.05-12.09c0.22-4.2,0.8-8.4,0.37-12.9
		c-1.67,5.13-3.67,10.19-4.91,15.41c-1.21,5.19-1.66,10.55-2.59,16.84c-4.17-10.9-9.03-20.8-2.02-31.49
		c3.88-5.91,8.2-11.57,11.81-17.64c5.02-8.45,10.39-16.84,14.12-25.85c5.51-13.31,13.08-24.97,23.65-34.85
		c5.32-4.96,12.15-5.43,18.81-6.1c10.89-1.1,21.82-1.72,32.72-2.72c16.34-1.5,29.72-9.53,42.41-18.88
		c11.37-8.38,22.93-16.55,33.94-25.37c9.97-7.99,21.2-11.11,33.77-10.84c15.14,0.33,30.31,0.38,45.43,1.04
		c18.65,0.83,36.34-2.7,53.56-9.43c11.13-4.34,22.42-8.31,33.63-12.47c10.12-3.77,19.6-2.72,28.67,3.18
		c9.11,5.93,18.39,11.59,27.63,17.32c3.81,2.36,7.76,4.46,11.53,6.86c15.38,9.81,31.59,10.51,48.68,4.94
		c7.37-2.39,14.95-4.54,22.6-5.69c14.64-2.19,24.34,3.06,31.52,15.76c5.58,9.84,7.49,20.62,8.68,31.6
		c1.54,14.28,3.15,28.55,4.73,42.83c0.07,0.63,0.32,1.24,0.49,1.88c0.2-0.02,0.41-0.05,0.61-0.07c1.07-12.6,2.13-25.22,3.19-37.82
		c0.36-0.18,0.71-0.35,1.07-0.52c6,7.17,14.14,13.27,15.91,22.94c2.49,13.66,4.23,27.52,5.11,41.35c1.1,17.21-1.15,34.52,2.27,51.72
		c1.93,9.74,2.27,19.78,3.67,29.64C1148.64,589.02,1141.27,616.89,1128.24,643.73z"/>
	<path class="st2" d="M629.61,435.34c-0.45,0.57-1.03,1.08-1.34,1.71c-4.35,8.81-8.55,17.69-13.03,26.44
		c-2.22,4.34-2.15,8.52-1.18,13.16c0.95,4.51,1.48,9.31,0.98,13.86c-1.62,14.71-3.67,29.37-5.85,44.02
		c-0.87,5.88-0.85,11.31,2.94,16.35c0.89,1.18,0.89,3.05,1.17,4.62c4.11,22.77,7.84,45.61,12.49,68.28
		c1.71,8.33,5.55,16.25,8.42,24.35c0.38-0.13,0.76-0.25,1.14-0.38c-2.15-12.51-4.4-25-6.44-37.53c-4.27-26.23-7.3-52.59-6.64-79.2
		c0.23-9.25,1.54-18.48,2.35-27.72c0.44-0.05,0.89-0.09,1.33-0.14c4.31,5.3,9.46,9.19,16.43,10.12
		c-3.62-6.86-7.11-13.49-10.61-20.12c10.95,4.15,14.08,4.61,18.4,2.23C625.95,481.05,624.74,459.31,629.61,435.34z M925.52,466.59
		c0.32-0.02,0.63-0.04,0.95-0.06c0.35-6.87,0.82-13.73,1.01-20.6c0.45-16.18-2.44-31.59-9.17-46.6c-4.35-9.69-6.81-20.25-9.44-30.59
		c-1.3-5.11-1.04-10.6-1.49-15.92c-4.18,8.67-4.97,17.75-4.44,27.23c-2.24-4.17-4.21-8.38-5.36-12.79
		c-1.12-4.34-1.41-8.89-2.06-13.35c-0.51-0.03-1.03-0.05-1.54-0.08c-0.94,6.67-1.87,13.34-3,21.37c-3.33-5.63-6.3-10.63-9.93-16.76
		c-0.42,5.19-0.75,9.35-1.08,13.5c-0.33,0.16-0.66,0.33-0.99,0.49c-2.46-3.33-4.92-6.66-7.3-9.88c-2.62,6.51-1.45,11.9,6.07,17.29
		c8.96,6.43,13.89,14.28,13.61,25.17c0,0.19,0.33,0.38,0.97,1.06c1.25-2.75,2.39-5.25,3.82-8.39c3.8,9.07,7.29,17.43,10.79,25.78
		c0.41-0.02,0.83-0.03,1.24-0.05c0.51-7.08,1.01-14.17,1.56-21.87c6.43,10.35,9.31,21.1,11.12,32.12
		C922.64,444.6,923.98,455.61,925.52,466.59z M787.11,438c0.06-0.39,0.12-0.79,0.18-1.18c-24.46-14.98-31.51-34.57-26.9-60.23
		c-9.06,6.31-11.09,15.27-13.53,24.58c-1.1-3.8-2.2-7.59-3.75-12.93c-5.8,6.92-10.82,12.91-16.37,19.54
		c12.58,1.05,21.17,7.55,27.73,16.74c3.41,4.78,6.51,9.87,8.96,15.17c3.35,7.25,5.96,14.82,8.68,21.75c0-8.18,0-16.88,0-25.29
		C777.23,436.77,782.17,437.39,787.11,438z M1027.94,406.61c13.05,21.71,23.79,32.62,32.7,33.47
		c-13.02-19.37-19.86-39.78-11.52-63.62c-7.94,5.3-11,12.14-11.55,20.42c-0.64-0.06-1.28-0.12-1.92-0.18
		c-0.94-6-1.88-11.99-2.96-18.83c-2.63,5.81-4.99,11.03-7.86,17.37c-1.43-5.55-2.56-9.93-3.76-14.58
		c-5.5,9.91-3.72,29.84,5.99,34.89C1027.3,412.99,1027.56,410.41,1027.94,406.61z M803.8,367.11c17.41,17.28,20.3,38.01,15.01,61.78
		c10.75-11.65,18.26-23.24,16.57-39.66c-2.09,3.68-3.71,6.51-6.03,10.6C828.01,382.39,818.96,372.33,803.8,367.11z M659.81,669.15
		c3.49,3.68,7.07,5.42,13.69,5c10.73-0.67,21.46-1.64,32.14-2.84c3.01-0.34,6.11-1.58,8.73-3.12c2.17-1.28,3.7-3.62,5.05-5
		c-5.41,0.63-10.6,1.84-15.76,1.7c-9.02-0.24-17.86-0.06-26.72,2.09C671.28,668.34,665.31,668.49,659.81,669.15z M815.21,363.29
		c4.72,3.08,9.19,5.96,13.64,8.89c7.4,4.87,13.47,4.9,20.67-0.19c3.55-2.51,6.85-5.35,11.09-8.69
		C844.76,363.29,830.04,363.29,815.21,363.29z M1067.66,430.07c-4.1-11.98-7.94-23.2-11.95-34.91c-3.56,9.04-2.54,21.9,2.09,29.45
		C1059.76,427.8,1062.52,429.77,1067.66,430.07z M973.86,403.53c8.36-10.9,7.3-33.49-2.01-42.41
		C972.52,375.29,973.17,389.1,973.86,403.53z M637.91,446.43c-4.22,7.69-2.91,24.68,3.03,31.75c2,2.38,4.08,4.96,7.3,4.61
		C644.71,470.35,641.23,458.1,637.91,446.43z M920.2,362.34c-6.02,12.52,0.37,29.67,12.48,34.66
		C928.6,385.68,924.41,374.03,920.2,362.34z M766.35,384.02c-1.6,8.61-0.89,17.34,3.27,25.63c1.72,3.42,4,6.37,8.17,6.53
		C773.93,405.33,770.12,394.62,766.35,384.02z M1091.75,651.4c-10.52-6.92-33.5-7.72-41.79-1.72
		C1063.64,650.25,1077.78,650.83,1091.75,651.4z M1008.06,381.23c-5.55,8.47-4.61,15.81,2.56,20.44
		C1009.76,394.84,1008.94,388.28,1008.06,381.23z M714.6,687.05c9.15-2.49,16.07-7.47,21.61-14.52c-7.24,3.04-14.31,6.01-21.22,8.91
		c5.15-6.74,10.7-12.76,14.71-19.64c2.85-4.9,5.33-11.05,4.99-16.49c-0.91-14.88-3.04-29.72-5.32-44.5
		c-4.67-30.17-7.86-60.45-9.22-90.94c-0.05-1.26-0.5-2.58-1.09-3.73c-6.1-11.88-8.98-24.51-9.13-37.75c-0.1-8.72,1-17.32,3.91-26.47
		c1.87,11.92,3.6,22.93,5.33,33.92c0.42-0.05,0.85-0.11,1.28-0.15c0.34-3.93,0.61-7.86,1.03-11.77c0.41-3.79,0.89-7.58,1.49-11.34
		c0.64-3.91,1.32-7.82,2.26-11.65c0.9-3.64,2.16-7.18,3.27-10.77c0.18,3.23-0.54,6.21-0.94,9.22c-4.55,34.75-1.76,69.38,2.34,103.93
		c2.38,20.07,5.73,40.04,8.85,60.02c2.7,17.35,5.27,34.76,8.77,51.96c1.84,9.05,5.54,17.72,8.4,26.55c0.35-0.09,0.7-0.19,1.06-0.28
		c-3.95-14.6-5.84-29.34-3.97-44.43c0.71,0.7,1.02,1.48,1.28,2.28c5.43,15.9,13.69,22.14,30.73,20.64
		c8.18-0.73,16.49-0.13,24.46-0.13c-6.56,2.51-13.2,5.05-19.84,7.58c0.16,0.54,0.31,1.07,0.47,1.6c0.82,0.04,1.63,0.18,2.44,0.11
		c11.63-0.92,22.99,0.04,34.12,3.83c7.92,2.7,16.07,2.08,23.83-0.87c3.76-1.43,7.2-3.66,11.63-5.96
		c-5.96-0.72-10.53-1.28-15.09-1.83c0.04-0.42,0.06-0.86,0.1-1.29c1.69-0.53,3.4-1.01,5.08-1.6c11.11-3.86,15.72-10.15,15.87-21.63
		c0.04-2.19,0.11-4.4,0.05-6.59c-0.7-24.61-0.62-49.26-2.4-73.79c-1.12-15.42-2.07-30.66,0.13-45.99c2.89-20.17,5.97-40.32,8.7-60.5
		c1.54-11.22,2.57-22.51,3.82-33.77c0.61,4.29,1.46,8.68,1.2,13c-1.15,18.4-2.37,36.82-4.08,55.19c-1.81,19.4-5.2,38.7-3.22,58.27
		c0.77,7.58,2.68,15.09,2.95,22.67c1.07,28.12,1.69,56.25,2.44,84.38c0.13,5.26,0.01,10.53,0.01,15.78c0.32,0,0.65,0.01,0.97,0.01
		c2.75-24.44,5.5-48.88,8.25-73.33c0.47-0.07,0.92-0.14,1.39-0.22c1.27,4.42,3.16,8.78,3.67,13.28c1.03,8.87,1.33,17.82,1.87,26.74
		c0.47,7.62,4.25,13.26,10.6,15.61c-4.2-11.52-3.77-21.95,1.27-27.07c0.24,17.92,8.8,29.92,26.29,35.26
		c6.99,2.12,14.17,3.71,21.32,5.34c18.09,4.11,32.69-1.81,44.63-15.16c0.49-0.55,1.19-0.95,2.28-1.8
		c-2.21,19.76-6.22,38.19-18.91,53.78c14.13-11.45,23.21-26.27,26.56-43.35c3.59-18.35,5.74-37.14,6.45-55.81
		c0.89-23.54,0.02-47.17-0.71-70.75c-0.53-17.3-2.74-34.4-7.9-51.14c-4.07-13.2-6.84-26.74-6.52-40.67
		c0.06-3.05,0.53-6.09,0.82-9.13c2.46,12.88,5.36,25.42,8.46,37.89c0.32,1.29,1.76,2.79,3.03,3.22c0.68,0.22,2.64-1.42,3.09-2.57
		c1.46-3.81,2.74-7.73,3.65-11.7c0.83-3.64,1.09-7.39,1.6-11.09c0.5,0.05,1,0.09,1.49,0.14c-0.85,11.73-1.66,23.47-2.59,35.19
		c-0.42,5.39-1.91,10.81-1.51,16.12c0.74,10.2,2.79,20.3,3.79,30.5c3.95,40.08,5.07,80.17-1.09,120.17
		c-0.44,2.87,0.42,4.52,2.57,6.32c16.68,14.01,35.59,19.47,57.28,14.79c2.61-0.56,5.26-0.93,7.9-1.37c0.02,0.47,0.06,0.94,0.08,1.42
		c-20.12,14.37-40.64,9.88-61.31,0.69c22.9,22.76,47.41,16.33,72.44,3.37l-11.92,17.92c0.65-0.77,9.04-3.87,15.16-7.5
		c0.55-0.33,2.71-3.31,3.1-3.8c0.47-0.57,0.92-1.16,1.38-1.75c0.76-0.96,1.51-1.95,2.25-2.93c0.35-0.45,0.67-0.89,1.01-1.34
		c0.79-1.07,1.58-2.15,2.35-3.24c2.34-3.29,4.59-6.65,6.72-10.08c0.26-0.43,0.53-0.86,0.79-1.29c1.57-2.57,3.09-5.19,4.53-7.84
		c0.4-0.72,0.78-1.44,1.16-2.16c0.05-0.08,0.08-0.16,0.12-0.23c0.46-0.86,0.89-1.71,1.32-2.57c0.46-0.88,0.9-1.78,1.33-2.68
		c13.03-26.84,20.4-54.71,16.16-84.73c-1.4-9.86-1.74-19.9-3.67-29.64c-3.42-17.2-1.16-34.51-2.27-51.72
		c-0.89-13.83-2.63-27.69-5.11-41.35c-1.76-9.67-9.91-15.77-15.91-22.94c-0.36,0.16-0.71,0.34-1.07,0.52
		c-1.07,12.6-2.13,25.22-3.19,37.82c-0.2,0.02-0.41,0.05-0.61,0.07c-0.17-0.63-0.42-1.24-0.49-1.88
		c-1.58-14.28-3.19-28.55-4.73-42.83c-1.19-10.98-3.1-21.76-8.68-31.6c-7.18-12.7-16.88-17.95-31.52-15.76
		c-7.65,1.15-15.22,3.3-22.6,5.69c-17.09,5.57-33.29,4.87-48.68-4.94c-3.77-2.41-7.72-4.51-11.53-6.86
		c-9.23-5.73-18.51-11.39-27.63-17.32c-9.08-5.9-18.55-6.95-28.67-3.18c-11.21,4.17-22.5,8.13-33.63,12.47
		c-17.22,6.74-34.92,10.27-53.56,9.43c-15.13-0.67-30.29-0.72-45.43-1.04c-12.57-0.27-23.81,2.85-33.77,10.84
		c-11.01,8.82-22.57,16.99-33.94,25.37c-12.69,9.35-26.07,17.38-42.41,18.88c-10.9,1-21.83,1.62-32.72,2.72
		c-6.66,0.67-13.5,1.14-18.81,6.1c-10.58,9.88-18.14,21.54-23.65,34.85c-3.73,9.01-9.1,17.4-14.12,25.85
		c-3.61,6.07-7.94,11.72-11.81,17.64c-7.01,10.69-2.15,20.59,2.02,31.49c0.94-6.29,1.38-11.65,2.59-16.84
		c1.24-5.22,3.24-10.28,4.91-15.41c0.43,4.49-0.16,8.7-0.37,12.9c-0.22,4.02-0.05,8.06-0.05,12.09c0.74,0.08,1.5,0.15,2.26,0.23
		c3.47-10.35,6.95-20.7,10.42-31.03c-0.53,14.26-3.53,28.12-8.44,41.55c-3.48,9.55-4.86,19.28-4.21,29.34
		c0.53,8.3,4.15,15.32,9.75,22.71c0.53-6.56,0.97-12.13,1.42-17.72c0.98,1.72,1.44,3.41,1.74,5.13c3.55,19.61,6.63,39.32,10.79,58.8
		c2.46,11.53,6.27,22.85,10.19,34.02c1.91,5.46,7.14,8.19,13,10.2c-0.84-4.38-1.57-8.2-2.31-12.03c1.4,0.14,1.85,0.52,2.14,0.97
		c9.74,15.16,23.11,24.14,42.04,24.2c5.5,0.01,11,0.94,16.49,1.44L714.6,687.05"/>
	<path class="st0" d="M743.46,681.96c-2.58,5.26-6.4,8.66-11.33,9.68c-9.19,1.9-18.55,3.2-27.9,4.15c-6.04,0.61-12.2,0.22-18.3,0.14
		c-1.28-0.02-2.56-0.7-4.9-1.38c6.51-1.9,11.96-4.71,17.52-6.32c5.03-0.57,12.37-0.78,16.05-1.17
		C720.73,689.4,726.43,688.37,743.46,681.96z"/>
	<path class="st0" d="M981.05,772.97c-2.21,4.24-3.86,8.17-6.18,11.66c-3.87,5.81-9.41,9.2-16.66,9.96
		c-12.18,1.27-24.34,2.77-36.5,4.18c-0.1-0.6-0.2-1.21-0.3-1.81c4.82-0.88,9.68-1.58,14.45-2.68c7.71-1.77,15.41-3.62,23.02-5.76
		c8.09-2.27,13.19-7.65,14.27-15.83c0.84-6.32,1.45-12.81,0.92-19.13c-0.69-8.27-5.33-14.88-13.32-17.97
		c-12.93-5-26.05-9.61-39.32-13.67c-6.85-2.1-12.9,0.67-17.63,6.05c-8.01,9.1-14.11,19.27-18.33,30.54
		c-0.5,1.33-1.05,2.64-1.57,3.95c-0.41-0.06-0.82-0.12-1.23-0.18c0.5-4.5,0.54-9.11,1.6-13.48c2.95-12.15,9.14-22.45,18.99-30.67
		c3.43-2.86,6.58-3.31,10.63-1.83c22.35,8.14,45.16,8.17,68.18,3.29c3.07-0.65,6.18-1.35,9.07-2.52
		c15.49-6.29,31.23-3.52,47.49-1.74c-1.82,2.94-3.37,5.45-5.07,8.2c6.48-2.76,12.49-5.32,19.47-8.29c-2.86,5.1-5.03,8.98-7.51,13.42
		c7.42-3.95,13.83-7.87,20.66-10.89c9.42-4.17,18.65-1.97,24.4,5.08c0.61,0.74,1.01,1.65,2.15,3.54c-2.52-1.63-3.99-2.59-6.35-4.11
		c1.23,3.73,2.27,6.42,2.99,9.19c0.68,2.59,1.02,5.26,1.71,8.97c-3.61-3.12-6.24-5.39-8.87-7.66c4.18,16.27,5.78,32.22,0.15,48.23
		c-2.87-8.02-5.7-15.92-8.52-23.82c-0.46,0.14-0.91,0.27-1.37,0.41c2.27,12.73,2.81,25.23-5.24,36.69c0-2.75,0-5.5,0-7.88
		c-5.54-1.3-10.96-2.3-16.18-3.9c-2.64-0.81-5.46-2.24-7.24-4.22c-2.74-3.03-5.32-2.78-9-2.13c-16.06,2.84-32.22,5.18-48.34,7.75
		c-2.59,0.41-3.94-0.32-4.17-3.04C982.09,778.38,981.54,775.93,981.05,772.97z"/>
	<path class="st0" d="M892.69,770.36c-0.54-4.5,1.38-5.11,4.47-5.04c6.59,0.15,13.19,0.11,19.78-0.07
		c5.38-0.15,10.75-0.63,17.49-1.04c-13.39-2.38-25.48-4.53-38.02-6.76c3.92-9.72,9.11-17.74,16.08-24.42
		c1.71-1.64,5.79-2.35,8.19-1.62c11.43,3.48,22.79,7.26,33.89,11.61c8.52,3.34,12.22,10.78,10.46,19.64
		c-0.26,1.34-2.7,3.06-4.28,3.23c-15.46,1.66-30.94,3.22-46.45,4.38C907.2,770.8,900.01,770.36,892.69,770.36z"/>
	<path class="st0" d="M862.13,678.39c-10,12.2-28.4,17.45-42.74,12.62c-3.39-1.14-6.74-2.44-10.07-3.74
		c-10.03-3.9-20.39-5.79-31.5-5.35c0.72-0.44,1.4-1.01,2.18-1.31c9.29-3.59,18.71-3.52,28.2-0.8c0.57,0.17,1.18,0.25,1.73,0.47
		C829.51,687.86,836.12,688.91,862.13,678.39z"/>
	<path class="st0" d="M980.39,679.74c-6.2,5.28-13.29,6.56-20.93,5.27c-3.53-0.6-7.11-1.36-10.41-2.68
		c-8-3.21-16.21-3.71-24.69-2.97c-7.32,0.64-14.43-0.11-20.27-5.17c-1.3-1.12-2.41-2.46-3.4-4.33c9.26,6.26,19.02,3.95,28.73,2.43
		c6.69-1.05,13.07,0.13,19.33,2.58C958.85,678.83,968.91,683.35,980.39,679.74z"/>
	<path d="M629.61,435.34c-4.87,23.97-3.66,45.71,20.57,60.06c-4.32,2.38-7.45,1.92-18.4-2.23c3.5,6.63,7,13.27,10.61,20.12
		c-6.97-0.94-12.13-4.82-16.43-10.12c-0.44,0.05-0.89,0.09-1.33,0.14c-0.82,9.24-2.12,18.47-2.35,27.72
		c-0.66,26.61,2.36,52.96,6.64,79.2c2.04,12.53,4.29,25.02,6.44,37.53c-0.38,0.13-0.76,0.25-1.14,0.38
		c-2.87-8.11-6.72-16.02-8.42-24.35c-4.64-22.67-8.38-45.51-12.49-68.28c-0.28-1.57-0.28-3.43-1.17-4.62
		c-3.79-5.04-3.81-10.47-2.94-16.35c2.18-14.64,4.22-29.31,5.85-44.02c0.5-4.55-0.04-9.35-0.98-13.86
		c-0.97-4.65-1.04-8.83,1.18-13.16c4.48-8.75,8.68-17.63,13.03-26.44C628.58,436.42,629.15,435.91,629.61,435.34z"/>
	<path d="M925.52,466.59c-1.54-10.98-2.89-21.99-4.68-32.93c-1.81-11.03-4.68-21.78-11.12-32.12c-0.55,7.71-1.05,14.79-1.56,21.87
		c-0.41,0.02-0.83,0.03-1.24,0.05c-3.5-8.35-6.99-16.71-10.79-25.78c-1.43,3.14-2.56,5.64-3.82,8.39c-0.64-0.68-0.97-0.87-0.97-1.06
		c0.28-10.89-4.65-18.75-13.61-25.17c-7.51-5.39-8.68-10.78-6.07-17.29c2.38,3.22,4.84,6.55,7.3,9.88c0.33-0.16,0.66-0.33,0.99-0.49
		c0.33-4.15,0.66-8.31,1.08-13.5c3.64,6.13,6.6,11.14,9.93,16.76c1.13-8.04,2.07-14.71,3-21.37c0.51,0.03,1.03,0.05,1.54,0.08
		c0.65,4.46,0.93,9.01,2.06,13.35c1.14,4.42,3.12,8.63,5.36,12.79c-0.54-9.48,0.26-18.56,4.44-27.23
		c0.45,5.32,0.19,10.81,1.49,15.92c2.62,10.34,5.09,20.9,9.44,30.59c6.73,15.01,9.62,30.42,9.17,46.6
		c-0.19,6.87-0.67,13.73-1.01,20.6C926.16,466.55,925.84,466.57,925.52,466.59z"/>
	<path d="M787.11,438c-4.94-0.62-9.89-1.23-14.99-1.87c0,8.41,0,17.12,0,25.29c-2.72-6.93-5.33-14.5-8.68-21.75
		c-2.45-5.3-5.54-10.4-8.96-15.17c-6.57-9.19-15.15-15.68-27.73-16.74c5.55-6.63,10.57-12.61,16.37-19.54
		c1.55,5.34,2.65,9.14,3.75,12.93c2.43-9.31,4.46-18.27,13.53-24.58c-4.62,25.66,2.43,45.25,26.9,60.23
		C787.23,437.21,787.17,437.61,787.11,438z"/>
	<path d="M1027.94,406.61c-0.38,3.8-0.63,6.38-0.89,8.94c-9.71-5.06-11.49-24.98-5.99-34.89c1.2,4.65,2.33,9.03,3.76,14.58
		c2.87-6.34,5.23-11.56,7.86-17.37c1.07,6.84,2.01,12.84,2.96,18.83c0.64,0.06,1.28,0.12,1.92,0.18
		c0.55-8.28,3.61-15.12,11.55-20.42c-8.33,23.84-1.5,44.26,11.52,63.62C1051.73,439.23,1040.99,428.32,1027.94,406.61z"/>
	<path d="M803.8,367.11c15.17,5.21,24.21,15.27,25.54,32.72c2.33-4.08,3.94-6.92,6.03-10.6c1.69,16.42-5.82,28.01-16.57,39.66
		C824.1,405.12,821.21,384.39,803.8,367.11z"/>
	<path d="M659.81,669.15c5.5-0.66,11.47-0.81,17.13-2.18c8.86-2.14,17.7-2.32,26.72-2.09c5.15,0.14,10.34-1.07,15.76-1.7
		c-1.35,1.39-2.87,3.72-5.05,5c-2.62,1.54-5.72,2.78-8.73,3.12c-10.68,1.21-21.41,2.17-32.14,2.84
		C666.88,674.57,663.29,672.83,659.81,669.15z"/>
	<path d="M815.21,363.29c14.83,0,29.54,0,45.39,0c-4.24,3.34-7.54,6.18-11.09,8.69c-7.19,5.09-13.27,5.06-20.67,0.19
		C824.41,369.26,819.94,366.37,815.21,363.29z"/>
	<path d="M1067.66,430.07c-5.14-0.3-7.91-2.27-9.86-5.46c-4.63-7.55-5.65-20.41-2.09-29.45
		C1059.72,406.87,1063.56,418.09,1067.66,430.07z"/>
	<path d="M973.86,403.53c-0.68-14.43-1.34-28.24-2.01-42.41C981.16,370.03,982.22,392.63,973.86,403.53z"/>
	<path d="M637.91,446.43c3.32,11.67,6.8,23.92,10.33,36.36c-3.21,0.35-5.29-2.23-7.3-4.61C635,471.12,633.69,454.12,637.91,446.43z"
		/>
	<path d="M920.2,362.34c4.21,11.69,8.4,23.33,12.48,34.66C920.57,392.01,914.18,374.86,920.2,362.34z"/>
	<path d="M766.35,384.02c3.77,10.6,7.58,21.31,11.44,32.16c-4.16-0.16-6.45-3.11-8.17-6.53
		C765.45,401.36,764.75,392.63,766.35,384.02z"/>
	<path d="M1091.75,651.4c-13.97-0.58-28.11-1.16-41.79-1.72C1058.25,643.68,1081.23,644.49,1091.75,651.4z"/>
	<path d="M1008.06,381.23c0.88,7.05,1.7,13.62,2.56,20.44C1003.45,397.03,1002.51,389.7,1008.06,381.23z"/>
	<path class="st0" d="M1102.18,683.64c0,0-32.65,19.13-49.25,13.31c-16.6-5.82-29.42-9.81-29.42-9.81l-10.99-7.24
		c0,0,8,6.19,6.12,7.87c-1.88,1.68,15.5,3.37,17.85,11.33C1038.83,707.05,1098.49,704.76,1102.18,683.64z"/>
</g>
<g>
	<path d="M60.24,254.8l-37.2-34.13l83.77-131.09h58.97L60.24,254.8z"/>
	<path d="M98.21,220.67l83.77-131.09H388l-54.17,84.84h-60.48l41.5,46.25h-70.36l-43.03-46.25l20.75-32.4h74.41l12.9-20.28h-89.84
		l-63.27,98.94H98.21z"/>
	<path d="M320.17,220.67l83.77-131.09h206.02l-83.77,131.09H320.17z M531.5,121.73h-89.85l-42.52,66.54h89.85L531.5,121.73z"/>
	<path d="M771.42,254.8L658.55,129.64l-37.71,59.12H696l-56.19,31.91h-97.44l83.77-131.09h76.43l67.83,76.18L819,89.57h57.96
		L771.42,254.8z"/>
	<path class="st2" d="M982.49,89.57h207.53l-20.5,32.15h-148.82l-10.88,16.82h148.06l-20.5,32.4H989.33l-31.89,49.72h-58.72
		L982.49,89.57z"/>
	<path class="st2" d="M1206.22,89.57h58.97l-83.78,131.09h-58.97L1206.22,89.57z"/>
	<path class="st2" d="M1472.22,121.98h-153.37l-10.63,16.82h153.37l-52.39,81.87h-211.58l20.75-32.4h153.37l11.14-17.31h-153.37
		l51.88-81.38h211.58L1472.22,121.98z"/>
	<path class="st2" d="M1474.49,242.93l78.71-121.2h-63.27l19.23-32.15h207.53l-20.76,32.15h-86.05l-43.28,68.02h63.02l-12.4,6.18
		c-6.08,2.47-13.16,5.36-21.26,8.66c-8.1,3.3-16.49,6.68-25.18,10.14c-8.69,3.46-17.25,6.88-25.69,10.26
		c-8.44,3.38-16.03,6.39-22.78,9.03c-6.75,2.64-12.23,4.78-16.45,6.43c-4.22,1.65-6.41,2.47-6.58,2.47H1474.49z"/>
</g>
</svg>
