<?xml version="1.0" encoding="utf-8"?>
<!-- Generator: Adobe Illustrator 24.0.2, SVG Export Plug-In . SVG Version: 6.00 Build 0)  -->
<svg version="1.1" id="Capa_1" xmlns="http://www.w3.org/2000/svg" xmlns:xlink="http://www.w3.org/1999/xlink" x="0px" y="0px"
	 viewBox="0 0 1725.7 363.8" style="enable-background:new 0 0 1725.7 363.8;" xml:space="preserve">
<style type="text/css">
	.st0{fill:#E80000;}
</style>
<g>
	<path d="M60.2,254.8L23,220.7l83.8-131.1h59L60.2,254.8z"/>
	<path d="M98.2,220.7L182,89.6h206l-54.2,84.8h-60.5l41.5,46.3h-70.4l-43-46.3l20.8-32.4h74.4l12.9-20.3h-89.8l-63.3,98.9
		L98.2,220.7L98.2,220.7z"/>
	<path d="M320.2,220.7l83.8-131.1h206l-83.8,131.1H320.2z M531.5,121.7h-89.9l-42.5,66.5H489L531.5,121.7z"/>
	<path d="M771.4,254.8L658.5,129.6l-37.7,59.1H696l-56.2,31.9h-97.4l83.8-131.1h76.4l67.8,76.2L819,89.6h58L771.4,254.8z"/>
	<path class="st0" d="M982.5,89.6H1190l-20.5,32.2h-148.8l-10.9,16.8h148.1l-20.5,32.4h-148l-31.9,49.7h-58.7L982.5,89.6z"/>
	<path class="st0" d="M1206.2,89.6h59l-83.8,131.1h-59L1206.2,89.6z"/>
	<path class="st0" d="M1472.2,122h-153.4l-10.6,16.8h153.4l-52.4,81.9h-211.6l20.8-32.4h153.4l11.1-17.3h-153.4l51.9-81.4H1493
		L1472.2,122z"/>
	<path class="st0" d="M1474.5,242.9l78.7-121.2h-63.3l19.2-32.2h207.5l-20.8,32.2h-86.1l-43.3,68h63l-12.4,6.2
		c-6.1,2.5-13.2,5.4-21.3,8.7s-16.5,6.7-25.2,10.1c-8.7,3.5-17.3,6.9-25.7,10.3c-8.4,3.4-16,6.4-22.8,9s-12.2,4.8-16.4,6.4
		s-6.4,2.5-6.6,2.5L1474.5,242.9L1474.5,242.9z"/>
</g>
</svg>
